<svg width="107" height="48" viewBox="0 0 107 48" fill="none" xmlns="http://www.w3.org/2000/svg">
<path fill-rule="evenodd" clip-rule="evenodd" d="M65.7238 16.1192C67.2126 16.1192 68.4195 14.9123 68.4195 13.4236C68.4195 11.9348 67.2126 10.7279 65.7238 10.7279C64.235 10.7279 63.0281 11.9348 63.0281 13.4236C63.0281 14.9123 64.235 16.1192 65.7238 16.1192ZM67.7778 18.0447H63.6701V35.8875H67.7778V18.0447ZM18.3563 26.9021C18.3563 26.9574 18.3558 27.0126 18.3548 27.0676V35.8876H14.1188V34.6925C12.6925 35.6116 10.9971 36.1444 9.17813 36.1444C4.10919 36.1444 0 32.0065 0 26.9021C0 21.7977 4.10919 17.6598 9.17813 17.6598C14.2471 17.6598 18.3563 21.7977 18.3563 26.9021ZM9.17849 32.1648C12.0497 32.1648 14.3773 29.8085 14.3773 26.9019C14.3773 23.9952 12.0497 21.6389 9.17849 21.6389C6.30727 21.6389 3.97969 23.9952 3.97969 26.9019C3.97969 29.8085 6.30727 32.1648 9.17849 32.1648ZM79.3922 36.1444C84.4611 36.1444 88.5703 32.0065 88.5703 26.9021C88.5703 21.7977 84.4611 17.6598 79.3922 17.6598C74.3232 17.6598 70.2141 21.7977 70.2141 26.9021C70.2141 32.0065 74.3232 36.1444 79.3922 36.1444ZM79.3927 32.1651C82.264 32.1651 84.5915 29.8088 84.5915 26.9022C84.5915 23.9955 82.264 21.6392 79.3927 21.6392C76.5215 21.6392 74.194 23.9955 74.194 26.9022C74.194 29.8088 76.5215 32.1651 79.3927 32.1651ZM20.025 29.9187H23.8118C23.8118 31.2665 24.8387 32.3576 26.3791 32.3576C27.5986 32.3576 28.5613 31.4591 28.5613 29.7903C28.5613 28.3586 26.9664 27.9902 25.6752 27.6919C25.2877 27.6024 24.9276 27.5193 24.6462 27.4156C23.4267 26.9663 21.1803 25.811 21.1803 22.7944C21.1803 19.7778 23.1058 17.724 26.2507 17.724C28.7667 17.724 30.1231 19.1788 30.4868 19.9704L28.112 22.3451C27.7911 21.7033 27.3418 21.1898 26.3791 21.1898C25.8656 21.1898 24.9671 21.5108 24.9671 22.6661C24.9671 23.7012 25.6107 23.9035 27.305 24.436C27.8168 24.5968 28.4243 24.7877 29.1389 25.0408C32.2197 26.1319 32.4123 29.0201 32.4123 30.3038C32.4123 31.5874 32.2197 36.1444 26.2507 36.1444C21.4755 36.1444 20.025 32.5502 20.025 29.9187ZM33.7594 18.0448H38.0596V28.8917C38.0596 29.4693 38.2522 32.4217 41.6538 32.4217C45.0555 32.4217 45.8257 29.7902 45.8257 28.8917V18.0448H49.805V30.1111L49.8039 30.1126V35.8874H45.6962V34.4872C44.4021 35.4124 42.8524 36.0801 41.012 36.0801C36.6476 36.0801 33.7594 32.9352 33.7594 28.8917V18.0448ZM56.8661 19.3884C58.1319 18.4267 59.6261 17.7126 61.3568 17.6628V21.5842C61.2536 21.5782 61.1469 21.5751 61.0368 21.5751C57.6351 21.5751 56.7366 24.2066 56.7366 25.1052V35.952H52.7572V23.8857L52.7584 23.8842V18.1093L56.8661 18.1093V19.3884ZM90.368 25.8752C90.368 21.338 94.0461 17.6598 98.5834 17.6598C103.121 17.6598 106.799 21.338 106.799 25.8752V35.8877H102.82V25.8752C102.82 23.5357 100.923 21.6392 98.5835 21.6392C96.244 21.6392 94.3475 23.5357 94.3475 25.8752V35.8877H90.368V25.8752Z" fill="black"/>
</svg>
